<svg preserveAspectRatio="none" overflow="visible" style="display: block;" width="24" height="24" viewBox="0 0 24 24" fill="none" xmlns="http://www.w3.org/2000/svg">
<g id="layers">
<path id="Vector" d="M1.9992 11.9998C1.99873 12.191 2.05312 12.3784 2.15593 12.5397C2.25874 12.701 2.40565 12.8295 2.57924 12.9098L11.1798 16.82C11.4391 16.9374 11.7203 16.9981 12.0049 16.9981C12.2895 16.9981 12.5707 16.9374 12.83 16.82L21.4106 12.9198C21.5876 12.8402 21.7376 12.7109 21.8424 12.5475C21.9472 12.3842 22.0021 12.1938 22.0006 11.9998M1.9992 17C1.99873 17.1913 2.05312 17.3787 2.15593 17.54C2.25874 17.7013 2.40565 17.8298 2.57924 17.9101L11.1798 21.8203C11.4391 21.9377 11.7203 21.9984 12.0049 21.9984C12.2895 21.9984 12.5707 21.9377 12.83 21.8203L21.4106 17.9201C21.5876 17.8405 21.7376 17.7112 21.8424 17.5478C21.9472 17.3844 22.0021 17.1941 22.0006 17M12.8304 2.17957C12.5698 2.06071 12.2868 1.9992 12.0004 1.9992C11.7139 1.9992 11.4309 2.06071 11.1703 2.17957L2.59969 6.07978C2.42223 6.15803 2.27135 6.28619 2.16543 6.44866C2.0595 6.61113 2.00311 6.80089 2.00311 6.99484C2.00311 7.18878 2.0595 7.37854 2.16543 7.54101C2.27135 7.70348 2.42223 7.83164 2.59969 7.90989L11.1803 11.8201C11.4409 11.939 11.7239 12.0005 12.0104 12.0005C12.2968 12.0005 12.5798 11.939 12.8404 11.8201L21.421 7.91989C21.5985 7.84164 21.7494 7.71348 21.8553 7.55101C21.9612 7.38854 22.0176 7.19878 22.0176 7.00484C22.0176 6.81089 21.9612 6.62113 21.8553 6.45866C21.7494 6.2962 21.5985 6.16803 21.421 6.08979L12.8304 2.17957Z" stroke="#0284C7" stroke-width="2" stroke-linecap="round"/>
</g>
</svg>
