<svg preserveAspectRatio="none" overflow="visible" style="display: block;" width="24" height="24" viewBox="0 0 24 24" fill="none" xmlns="http://www.w3.org/2000/svg">
<g id="paperclip">
<path id="Vector" d="M16.0001 5.99919L7.58543 14.586C7.21025 14.9612 6.99948 15.4701 6.99948 16.0007C6.99948 16.5313 7.21025 17.0401 7.58543 17.4153C7.96061 17.7905 8.46946 18.0013 9.00005 18.0013C9.53063 18.0013 10.0395 17.7905 10.4147 17.4153L18.8294 8.82847C19.5796 8.07823 20.0011 7.06069 20.0011 5.99969C20.0011 4.9387 19.5796 3.92115 18.8294 3.17092C18.0791 2.42068 17.0616 1.9992 16.0006 1.9992C14.9396 1.9992 13.9221 2.42068 13.1719 3.17092L4.7922 11.7227C4.22755 12.2783 3.77848 12.9401 3.47089 13.6701C3.1633 14.4 3.00328 15.1837 3.00005 15.9758C2.99682 16.7679 3.15046 17.5528 3.4521 18.2852C3.75373 19.0177 4.1974 19.6832 4.75751 20.2433C5.31761 20.8034 5.98307 21.2471 6.7155 21.5487C7.44793 21.8503 8.23283 22.004 9.02493 22.0008C9.81703 21.9975 10.6007 21.8375 11.3306 21.5299C12.0606 21.2223 12.7224 20.7732 13.2779 20.2086L21.6576 11.6567" stroke="#0284C7" stroke-width="2" stroke-linecap="round"/>
</g>
</svg>
